<mxfile host="app.diagrams.net" modified="2021-08-29T05:59:37.257Z" agent="5.0 (Macintosh; Intel Mac OS X 10_15_7) AppleWebKit/537.36 (KHTML, like Gecko) Chrome/92.0.4515.159 Safari/537.36" etag="HLeyeJdNCoxSxqxhZmnM" version="14.9.4" type="github">
  <diagram id="b4NF75Dsymx4aIAjA5e6" name="Page-1">
    <mxGraphModel dx="658" dy="445" grid="1" gridSize="10" guides="1" tooltips="1" connect="1" arrows="1" fold="1" page="1" pageScale="1" pageWidth="1654" pageHeight="1169" math="0" shadow="0">
      <root>
        <mxCell id="0" />
        <mxCell id="1" parent="0" />
        <mxCell id="geBveOrqPz7ReBBfCjcb-3" value="" style="edgeStyle=orthogonalEdgeStyle;rounded=0;orthogonalLoop=1;jettySize=auto;html=1;" edge="1" parent="1" source="geBveOrqPz7ReBBfCjcb-1" target="geBveOrqPz7ReBBfCjcb-2">
          <mxGeometry relative="1" as="geometry" />
        </mxCell>
        <mxCell id="geBveOrqPz7ReBBfCjcb-1" value="&lt;font&gt;&lt;span style=&quot;font-size: 24px&quot;&gt;Identify&lt;/span&gt;&lt;br&gt;&lt;font style=&quot;font-size: 12px&quot;&gt;Existing Components&lt;/font&gt;&lt;br&gt;&lt;/font&gt;" style="rounded=0;whiteSpace=wrap;html=1;" vertex="1" parent="1">
          <mxGeometry x="80" y="120" width="120" height="60" as="geometry" />
        </mxCell>
        <mxCell id="geBveOrqPz7ReBBfCjcb-5" value="" style="edgeStyle=orthogonalEdgeStyle;rounded=0;orthogonalLoop=1;jettySize=auto;html=1;" edge="1" parent="1" source="geBveOrqPz7ReBBfCjcb-2" target="geBveOrqPz7ReBBfCjcb-4">
          <mxGeometry relative="1" as="geometry" />
        </mxCell>
        <mxCell id="geBveOrqPz7ReBBfCjcb-2" value="&lt;font&gt;&lt;span style=&quot;font-size: 24px&quot;&gt;Suggest&lt;/span&gt;&lt;font style=&quot;font-size: 12px&quot;&gt;&lt;br&gt;GCP Equivalent&lt;/font&gt;&lt;br&gt;&lt;/font&gt;" style="whiteSpace=wrap;html=1;rounded=0;" vertex="1" parent="1">
          <mxGeometry x="256" y="120" width="120" height="60" as="geometry" />
        </mxCell>
        <mxCell id="geBveOrqPz7ReBBfCjcb-7" value="" style="edgeStyle=orthogonalEdgeStyle;rounded=0;orthogonalLoop=1;jettySize=auto;html=1;" edge="1" parent="1" source="geBveOrqPz7ReBBfCjcb-4" target="geBveOrqPz7ReBBfCjcb-6">
          <mxGeometry relative="1" as="geometry" />
        </mxCell>
        <mxCell id="geBveOrqPz7ReBBfCjcb-4" value="&lt;font&gt;&lt;span style=&quot;font-size: 24px&quot;&gt;Provision&lt;/span&gt;&lt;br&gt;&lt;font style=&quot;font-size: 12px&quot;&gt;in the cloud&lt;/font&gt;&lt;br&gt;&lt;/font&gt;" style="whiteSpace=wrap;html=1;rounded=0;" vertex="1" parent="1">
          <mxGeometry x="435" y="120" width="120" height="60" as="geometry" />
        </mxCell>
        <mxCell id="geBveOrqPz7ReBBfCjcb-6" value="&lt;font style=&quot;font-size: 24px&quot;&gt;Collate&lt;/font&gt;&lt;br&gt;All provisioned details" style="whiteSpace=wrap;html=1;rounded=0;" vertex="1" parent="1">
          <mxGeometry x="615" y="120" width="120" height="60" as="geometry" />
        </mxCell>
      </root>
    </mxGraphModel>
  </diagram>
</mxfile>
